# xmcd
#
# Track frame offsets:
#  150
#  24212
#  48050
#  70330
#  83700
#  97235
#  132142
#  165205
#  189742
#  204620
#
# Disc length: 3048 seconds
#
# Revision: 0
# Processed by: cddbd v1.4PL0 Copyright (c) Steve Scherf et al.
# Submitted via: AltoMP3_Maker 3.0
#
DISCID=7b0be60a
DTITLE=The Whispers - Greatest Hits
DYEAR=1900
DGENRE=
TTITLE0=Rock Steady
TTITLE1=It's A LoveThing
TTITLE2=In The Mood
TTITLE3=Seems Like I Gotta Do Wrong
TTITLE4=Planets Of Love
TTITLE5=And The Beat Goes On
TTITLE6=I Can Make It Better
TTITLE7=Bingo
TTITLE8=A Mother For My Children
TTITLE9=Give It To Me
EXTD=
EXTT0=
EXTT1=
EXTT2=
EXTT3=
EXTT4=
EXTT5=
EXTT6=
EXTT7=
EXTT8=
EXTT9=
PLAYORDER=
